<svg version="1.1" id="Layer_1" xmlns="http://www.w3.org/2000/svg" xmlns:xlink="http://www.w3.org/1999/xlink" x="0px" y="0px"
	 width="100%" viewBox="0 0 512 512" enable-background="new 0 0 512 512" xml:space="preserve">
<path fill="#3C3A41" opacity="1.000000" stroke="none" 
	d="
M361.000000,513.000000 
	C351.645782,513.000000 342.291534,513.000000 332.341797,512.825867 
	C331.562103,512.429932 331.355560,512.231323 331.075134,511.586243 
	C331.003082,464.720306 330.981781,418.324066 330.962494,371.927856 
	C330.958374,362.017487 330.961761,362.029938 320.804718,362.014801 
	C299.187775,361.982605 277.570831,361.936157 255.982681,361.434143 
	C255.992645,351.015900 255.973816,341.059021 256.424194,331.048218 
	C279.543213,330.976501 302.194244,330.831055 324.841919,331.044830 
	C329.566528,331.089447 331.085419,329.877045 331.066223,324.977264 
	C330.888885,279.677734 330.889191,234.376968 331.066711,189.077469 
	C331.085754,184.225967 329.690125,182.912384 324.896729,182.951279 
	C301.917816,183.137711 278.935883,182.951614 255.983459,182.436340 
	C255.992569,172.018021 255.973206,162.061234 256.423889,152.059494 
	C279.676453,152.003677 302.460144,151.867111 325.240509,152.085449 
	C329.936615,152.130463 331.120270,150.585968 331.052826,146.115005 
	C330.817108,130.486694 330.944733,114.852623 330.965515,99.220787 
	C331.008636,66.795174 331.071747,34.369587 331.289917,1.803774 
	C331.661774,1.464080 331.844055,1.242894 332.000000,1.000000 
	C341.354218,1.000000 350.708466,1.000000 360.660675,1.177491 
	C361.447815,1.580202 361.660736,1.780150 361.947388,2.424048 
	C362.017914,50.382053 362.036987,97.870834 362.060638,145.359619 
	C362.063904,151.963104 362.074432,151.978561 368.533234,151.979965 
	C416.688812,151.990372 464.844421,151.994156 513.000000,152.000000 
	C513.000000,161.687561 513.000000,171.375122 512.828979,181.663544 
	C512.431274,182.444839 512.230652,182.650604 511.586517,182.936508 
	C463.633026,183.013855 416.148987,183.035004 368.664948,183.060471 
	C362.076721,183.064011 362.061981,183.073898 362.061340,189.530273 
	C362.056885,234.682114 362.058594,279.833954 362.061340,324.985809 
	C362.061401,326.151703 361.726410,327.511200 362.209839,328.433167 
	C362.779602,329.519684 364.071899,330.227295 365.155609,331.169769 
	C365.260284,331.240326 365.621368,331.275055 365.621368,331.275055 
	C365.621368,331.275055 365.949341,331.098602 366.418640,331.045532 
	C389.169983,330.971466 411.452057,330.919098 433.734070,330.937592 
	C459.838745,330.959259 485.943329,331.042572 512.188660,331.267273 
	C512.536804,331.642700 512.760315,331.830902 513.000000,332.000000 
	C513.000000,341.687561 513.000000,351.375122 512.531372,361.536957 
	C464.072662,362.013428 416.082428,362.083313 368.093018,361.913971 
	C363.252075,361.896881 361.842957,363.267212 361.951416,368.083832 
	C362.258972,381.740723 362.073761,395.409088 362.055847,409.072876 
	C362.010895,443.396973 361.951172,477.721069 361.728790,512.185669 
	C361.344818,512.526917 361.158081,512.751587 361.000000,513.000000 
z"/>
<path fill="#57555C" opacity="1.000000" stroke="none" 
	d="
M255.954987,331.102142 
	C255.973816,341.059021 255.992645,351.015900 255.518494,361.470642 
	C230.820343,361.968536 206.615173,361.968536 182.000000,361.968536 
	C182.000000,412.905518 182.000000,462.952759 182.000000,513.000000 
	C171.979111,513.000000 161.958206,513.000000 151.468491,512.531372 
	C150.999664,462.202148 150.999664,412.341614 150.999664,362.000000 
	C100.471725,362.000000 50.735863,362.000000 1.000000,362.000000 
	C1.000000,351.979095 1.000000,341.958221 1.468657,331.468842 
	C51.483814,331.000366 101.030312,331.000366 150.631134,331.000366 
	C150.631134,281.279358 150.631134,232.410065 150.631134,183.000000 
	C100.509750,183.000000 50.754875,183.000000 1.000000,183.000000 
	C1.000000,172.979111 1.000000,162.958206 1.468657,152.468307 
	C51.465046,151.999298 100.992775,151.999298 151.000000,151.999298 
	C151.000000,101.137901 151.000000,51.068951 151.000000,1.000000 
	C161.020889,1.000000 171.041794,1.000000 181.531509,1.468657 
	C182.000336,51.775215 182.000336,101.613113 182.000336,152.104462 
	C207.132828,152.104462 231.543350,152.104462 255.953857,152.104462 
	C255.973206,162.061234 255.992569,172.018021 255.519104,182.471420 
	C230.812622,182.968048 206.598938,182.968048 182.350372,182.968048 
	C182.350372,232.729599 182.350372,281.575989 182.350372,331.102142 
	C207.115936,331.102142 231.535461,331.102142 255.954987,331.102142 
z"/>
<path fill="#000000" opacity="1.000000" stroke="none" 
	d="
M513.000000,151.531342 
	C464.844421,151.994156 416.688812,151.990372 368.533234,151.979965 
	C362.074432,151.978561 362.063904,151.963104 362.060638,145.359619 
	C362.036987,97.870834 362.017914,50.382053 361.984802,2.186650 
	C361.972260,1.480029 362.000000,1.000000 362.000000,1.000000 
	C412.260345,1.000000 462.520660,1.000000 513.000000,1.000000 
	C513.000000,51.020679 513.000000,101.041679 513.000000,151.531342 
M489.017853,115.489151 
	C490.101379,114.313919 491.184875,113.138680 492.327942,111.898857 
	C480.666290,100.305206 469.333649,89.038651 457.530243,77.304085 
	C469.137756,65.729256 480.532379,54.366730 491.666687,43.263744 
	C484.443237,36.035614 477.227570,28.815281 469.151367,20.733866 
	C458.074005,31.828304 446.709137,43.210697 435.260895,54.676579 
	C424.342865,43.659943 413.096039,32.311554 402.392517,21.511364 
	C394.860596,28.969254 387.586548,36.171780 380.020294,43.663670 
	C391.189148,54.740231 402.597076,66.053894 414.568420,77.926323 
	C403.006866,89.441254 391.744965,100.657730 381.081329,111.278343 
	C388.085052,118.317108 395.216614,125.484383 402.732330,133.037720 
	C413.583862,122.161530 424.706726,111.013420 435.939697,99.754951 
	C436.655090,100.343765 437.186127,100.712097 437.636292,101.161423 
	C447.537231,111.044312 457.499298,120.867706 467.273651,130.874435 
	C469.721100,133.380081 471.328430,133.435165 473.729523,130.874573 
	C478.511383,125.775009 483.575104,120.939751 489.017853,115.489151 
z"/>
<path fill="#000000" opacity="1.000000" stroke="none" 
	d="
M1.000000,362.468658 
	C50.735863,362.000000 100.471725,362.000000 150.999664,362.000000 
	C150.999664,412.341614 150.999664,462.202148 150.999832,512.531372 
	C101.072762,513.000000 51.145531,513.000000 1.000000,513.000000 
	C1.000000,462.979309 1.000000,412.958313 1.000000,362.468658 
M119.499634,388.999725 
	C116.817429,386.111694 114.135216,383.223633 110.779243,379.610107 
	C98.889732,391.528412 87.766708,402.678406 76.050682,414.422852 
	C75.103104,413.199371 74.208603,411.759308 73.044601,410.586792 
	C63.890564,401.365814 54.733139,392.146515 45.426464,383.080963 
	C44.409874,382.090729 41.615269,381.201355 41.041744,381.743225 
	C34.085423,388.315338 27.391365,395.165070 20.410231,402.162018 
	C32.257458,413.879852 43.614185,425.112518 55.665718,437.032440 
	C44.062943,448.582642 32.650761,459.943115 21.401682,471.141235 
	C28.429747,478.147186 35.605816,485.300629 43.352203,493.022644 
	C54.402172,481.940857 65.768700,470.541595 77.393448,458.883362 
	C88.683311,470.210724 100.025993,481.591095 110.857933,492.459015 
	C118.320656,485.020233 125.486610,477.877289 132.753159,470.634094 
	C121.612099,459.544098 110.213074,448.197357 98.314629,436.353455 
	C110.028580,424.666504 121.292313,413.428741 132.655762,402.091492 
	C128.499176,397.955994 124.249443,393.727783 119.499634,388.999725 
z"/>
<path fill="#000000" opacity="1.000000" stroke="none" 
	d="
M182.468658,513.000000 
	C182.000000,462.952759 182.000000,412.905518 182.000000,361.968536 
	C206.615173,361.968536 230.820343,361.968536 255.489700,361.932037 
	C277.570831,361.936157 299.187775,361.982605 320.804718,362.014801 
	C330.961761,362.029938 330.958374,362.017487 330.962494,371.927856 
	C330.981781,418.324066 331.003082,464.720306 331.033264,511.820831 
	C331.042908,512.525146 331.000000,513.000000 331.000000,513.000000 
	C281.645782,513.000000 232.291550,513.000000 182.468658,513.000000 
M256.270782,414.762299 
	C244.908264,403.367065 233.545731,391.971863 221.930710,380.323425 
	C215.591187,386.752960 209.920837,392.864685 203.834763,398.529755 
	C200.610062,401.531342 200.607849,403.364258 203.812073,406.437317 
	C214.126617,416.329773 224.130066,426.546600 234.511826,436.895874 
	C223.026596,448.349274 211.870316,459.474670 200.966721,470.348053 
	C208.568329,477.919525 215.806580,485.129089 222.350662,491.647247 
	C233.361481,481.016449 244.738525,470.032043 256.739288,459.244629 
	C267.963837,470.496368 279.188416,481.748108 289.770477,492.355774 
	C297.295959,484.875214 304.468842,477.745178 312.088745,470.170776 
	C301.221008,459.324799 290.070892,448.197021 278.768372,436.917114 
	C280.052002,435.571259 281.159607,434.363159 282.316559,433.204254 
	C291.498566,424.006866 300.748871,414.876038 309.797333,405.549255 
	C310.825775,404.489166 311.643250,401.490997 311.025116,400.833862 
	C304.563263,393.964172 297.788025,387.389221 291.650299,381.280731 
	C279.834930,392.727386 268.370758,403.833801 256.270782,414.762299 
z"/>
<path fill="#000000" opacity="1.000000" stroke="none" 
	d="
M365.050934,331.099213 
	C364.071899,330.227295 362.779602,329.519684 362.209839,328.433167 
	C361.726410,327.511200 362.061401,326.151703 362.061340,324.985809 
	C362.058594,279.833954 362.056885,234.682114 362.061340,189.530273 
	C362.061981,183.073898 362.076721,183.064011 368.664948,183.060471 
	C416.148987,183.035004 463.633026,183.013855 511.821564,182.973373 
	C512.526062,182.955399 513.000000,183.000000 513.000000,183.000000 
	C513.000000,232.020889 513.000000,281.041779 512.761108,330.547546 
	C512.522217,331.032379 512.047974,331.099121 512.047974,331.099121 
	C485.943329,331.042572 459.838745,330.959259 433.734070,330.937592 
	C411.452057,330.919098 389.169983,330.971466 366.194092,331.026672 
	C365.500244,331.060822 365.050934,331.099213 365.050934,331.099213 
M459.470428,256.046631 
	C470.429016,245.152084 481.387573,234.257507 491.988464,223.718521 
	C484.357147,216.082703 477.151245,208.872574 469.792755,201.509766 
	C458.921478,212.452774 447.767181,223.680695 436.001465,235.524048 
	C424.545807,224.012192 413.183441,212.594101 402.217529,201.574417 
	C395.105713,208.680664 387.897552,215.883163 380.176880,223.597809 
	C391.177032,234.569382 402.476990,245.839981 413.753906,257.087585 
	C402.499390,268.309174 391.098267,279.676910 380.525146,290.219116 
	C388.292847,297.978851 395.549805,305.228363 402.926788,312.597717 
	C413.733551,301.688141 424.985931,290.328735 436.428345,278.777466 
	C447.920898,290.300812 459.187531,301.597687 469.618927,312.057068 
	C476.982452,304.686462 484.232239,297.429718 491.664764,289.990051 
	C483.257019,281.634430 474.363159,272.860565 465.556763,263.999756 
	C463.258667,261.687439 461.232941,259.104431 459.470428,256.046631 
z"/>
<path fill="#000000" opacity="1.000000" stroke="none" 
	d="
M1.000000,183.468658 
	C50.754875,183.000000 100.509750,183.000000 150.631134,183.000000 
	C150.631134,232.410065 150.631134,281.279358 150.631134,331.000366 
	C101.030312,331.000366 51.483814,331.000366 1.468657,331.000183 
	C1.000000,281.979095 1.000000,232.958206 1.000000,183.468658 
M70.995819,284.506592 
	C72.768661,282.634888 74.541504,280.763184 77.244865,277.909088 
	C89.083641,289.766693 100.441452,301.142578 111.408447,312.127045 
	C118.245392,305.433105 125.460579,298.368835 133.528503,290.469635 
	C122.157570,279.121857 110.765015,267.752472 99.264153,256.275024 
	C110.326614,245.322830 121.687347,234.075348 132.414795,223.454819 
	C124.916603,215.936798 117.680672,208.681717 109.998688,200.979416 
	C99.022308,212.006638 87.696129,223.385254 76.230995,234.903488 
	C64.961639,223.561905 53.805546,212.334320 43.283161,201.744507 
	C35.946579,209.098206 28.707899,216.353775 20.780827,224.299332 
	C31.595114,234.989883 42.800190,246.066727 54.626286,257.757507 
	C43.380955,268.944305 32.210220,280.056915 21.165268,291.044373 
	C28.392233,298.238251 35.580158,305.393250 42.929031,312.708466 
	C51.932522,303.659882 61.214218,294.331696 70.995819,284.506592 
z"/>
<path fill="#000000" opacity="1.000000" stroke="none" 
	d="
M361.897369,512.045166 
	C361.951172,477.721069 362.010895,443.396973 362.055847,409.072876 
	C362.073761,395.409088 362.258972,381.740723 361.951416,368.083832 
	C361.842957,363.267212 363.252075,361.896881 368.093018,361.913971 
	C416.082428,362.083313 464.072662,362.013428 512.531372,362.005615 
	C513.000000,412.260345 513.000000,462.520660 513.000000,513.000000 
	C462.979309,513.000000 412.958313,513.000000 362.454681,512.760010 
	C361.972046,512.520081 361.897369,512.045166 361.897369,512.045166 
M470.621185,486.106903 
	C491.661560,471.572205 499.363220,450.662964 495.605774,426.509460 
	C490.973022,396.729187 466.385437,376.779572 436.563965,376.158569 
	C425.170349,375.921295 414.195282,378.904388 404.346436,385.242096 
	C388.098785,395.697327 378.222565,410.514130 376.202240,429.550415 
	C374.034149,449.979126 380.549133,467.590332 396.152374,481.798401 
	C415.769043,499.661011 448.100586,502.422333 470.621185,486.106903 
z"/>
<path fill="#000000" opacity="1.000000" stroke="none" 
	d="
M150.531342,1.000000 
	C151.000000,51.068951 151.000000,101.137901 151.000000,151.999298 
	C100.992775,151.999298 51.465046,151.999298 1.468657,151.999649 
	C1.000000,101.739906 1.000000,51.479809 1.000000,1.000000 
	C50.687344,1.000000 100.375015,1.000000 150.531342,1.000000 
M123.521637,39.015217 
	C117.449997,32.335365 110.796623,26.570684 102.420403,22.702667 
	C79.475998,12.107265 53.279430,16.176954 35.100559,33.555950 
	C21.547136,46.513027 15.808868,62.676537 16.845774,81.635704 
	C17.679234,96.875038 23.466034,109.913033 33.995209,120.071144 
	C47.679214,133.272888 64.294029,139.735245 84.038757,137.148697 
	C102.086700,134.784439 116.238899,126.397614 126.490303,111.786812 
	C136.013626,98.213707 138.972610,82.970131 136.121567,66.448227 
	C134.373657,56.318989 129.866714,47.697941 123.521637,39.015217 
z"/>
<path fill="#000000" opacity="1.000000" stroke="none" 
	d="
M256.423889,152.059494 
	C231.543350,152.104462 207.132828,152.104462 182.000336,152.104462 
	C182.000336,101.613113 182.000336,51.775215 182.000168,1.468657 
	C231.354233,1.000000 280.708466,1.000000 330.552917,1.237351 
	C331.043152,1.474702 331.126648,1.943991 331.126648,1.943991 
	C331.071747,34.369587 331.008636,66.795174 330.965515,99.220787 
	C330.944733,114.852623 330.817108,130.486694 331.052826,146.115005 
	C331.120270,150.585968 329.936615,152.130463 325.240509,152.085449 
	C302.460144,151.867111 279.676453,152.003677 256.423889,152.059494 
M257.381989,16.995956 
	C256.930542,17.036366 256.479126,17.076775 255.134171,17.019222 
	C251.880188,17.346819 248.589096,17.465267 245.378021,18.034824 
	C217.626846,22.957180 197.632324,46.387848 196.181458,73.322197 
	C195.030685,94.685219 202.904770,112.797119 220.430847,125.822983 
	C231.178986,133.811279 243.429077,137.900009 257.720398,137.952972 
	C259.163696,137.638397 260.606995,137.323837 262.922211,137.013000 
	C264.898651,136.901840 266.952820,137.102142 268.839600,136.631470 
	C288.548279,131.714920 303.466461,120.833458 311.704559,101.784119 
	C317.004608,89.528526 318.444824,76.890472 315.465424,63.801174 
	C312.564636,51.057373 306.134552,40.363762 296.338440,31.840494 
	C287.397156,24.060984 277.244965,18.647156 264.596436,17.327959 
	C262.414825,17.266188 260.233215,17.204416 257.381989,16.995956 
z"/>
<path fill="#454349" opacity="1.000000" stroke="none" 
	d="
M331.250000,513.000000 
	C331.000000,513.000000 331.042908,512.525146 331.084778,512.290527 
	C331.355560,512.231323 331.562103,512.429932 331.873138,512.825867 
	C332.000000,513.000000 331.500000,513.000000 331.250000,513.000000 
z"/>
<path fill="#454349" opacity="1.000000" stroke="none" 
	d="
M331.289917,1.803774 
	C331.126648,1.943991 331.043152,1.474702 331.021576,1.237351 
	C331.000000,1.000000 331.500000,1.000000 331.750000,1.000000 
	C331.844055,1.242894 331.661774,1.464080 331.289917,1.803774 
z"/>
<path fill="#454349" opacity="1.000000" stroke="none" 
	d="
M361.728790,512.185669 
	C361.897369,512.045166 361.972046,512.520081 361.986023,512.760010 
	C362.000000,513.000000 361.500000,513.000000 361.250000,513.000000 
	C361.158081,512.751587 361.344818,512.526917 361.728790,512.185669 
z"/>
<path fill="#454349" opacity="1.000000" stroke="none" 
	d="
M361.750000,1.000000 
	C362.000000,1.000000 361.972260,1.480029 361.934814,1.717427 
	C361.660736,1.780150 361.447815,1.580202 361.129333,1.177491 
	C361.000000,1.000000 361.500000,1.000000 361.750000,1.000000 
z"/>
<path fill="#49454C" opacity="1.000000" stroke="none" 
	d="
M512.188660,331.267273 
	C512.047974,331.099121 512.522217,331.032379 512.761108,331.016174 
	C513.000000,331.000000 513.000000,331.500000 513.000000,331.750000 
	C512.760315,331.830902 512.536804,331.642700 512.188660,331.267273 
z"/>
<path fill="#49454C" opacity="1.000000" stroke="none" 
	d="
M513.000000,182.750000 
	C513.000000,183.000000 512.526062,182.955399 512.291016,182.918533 
	C512.230652,182.650604 512.431274,182.444839 512.828979,182.132202 
	C513.000000,182.000000 513.000000,182.500000 513.000000,182.750000 
z"/>
<path fill="#000000" opacity="1.000000" stroke="none" 
	d="
M256.424194,331.048218 
	C231.535461,331.102142 207.115936,331.102142 182.350372,331.102142 
	C182.350372,281.575989 182.350372,232.729599 182.350372,182.968048 
	C206.598938,182.968048 230.812622,182.968048 255.490646,182.932953 
	C278.935883,182.951614 301.917816,183.137711 324.896729,182.951279 
	C329.690125,182.912384 331.085754,184.225967 331.066711,189.077469 
	C330.889191,234.376968 330.888885,279.677734 331.066223,324.977264 
	C331.085419,329.877045 329.566528,331.089447 324.841919,331.044830 
	C302.194244,330.831055 279.543213,330.976501 256.424194,331.048218 
M255.113159,197.019775 
	C252.288864,197.074448 249.392593,196.740906 246.652344,197.248901 
	C232.452667,199.881363 220.491577,206.382858 210.907211,217.464447 
	C201.883209,227.898132 196.820801,239.967377 196.150146,253.458878 
	C195.180450,272.966736 202.134247,289.540771 217.037140,302.554504 
	C228.225021,312.324127 241.004929,317.608917 256.925598,317.007904 
	C274.942230,317.445740 289.506104,310.378235 301.537048,297.137177 
	C310.868591,286.867096 316.096283,274.798065 316.832764,261.244843 
	C317.902679,241.555908 311.176910,224.729691 296.088867,211.427811 
	C284.555389,201.259674 271.349335,196.371246 255.113159,197.019775 
z"/>
<path fill="#49454C" opacity="1.000000" stroke="none" 
	d="
M365.155609,331.169769 
	C365.050934,331.099213 365.500244,331.060822 365.724792,331.079712 
	C365.949341,331.098602 365.621368,331.275055 365.621368,331.275055 
	C365.621368,331.275055 365.260284,331.240326 365.155609,331.169769 
z"/>
<path fill="#1689FC" opacity="1.000000" stroke="none" 
	d="
M488.770111,115.742233 
	C483.575104,120.939751 478.511383,125.775009 473.729523,130.874573 
	C471.328430,133.435165 469.721100,133.380081 467.273651,130.874435 
	C457.499298,120.867706 447.537231,111.044312 437.636292,101.161423 
	C437.186127,100.712097 436.655090,100.343765 435.939697,99.754951 
	C424.706726,111.013420 413.583862,122.161530 402.732330,133.037720 
	C395.216614,125.484383 388.085052,118.317108 381.081329,111.278343 
	C391.744965,100.657730 403.006866,89.441254 414.568420,77.926323 
	C402.597076,66.053894 391.189148,54.740231 380.020294,43.663670 
	C387.586548,36.171780 394.860596,28.969254 402.392517,21.511364 
	C413.096039,32.311554 424.342865,43.659943 435.260895,54.676579 
	C446.709137,43.210697 458.074005,31.828304 469.151367,20.733866 
	C477.227570,28.815281 484.443237,36.035614 491.666687,43.263744 
	C480.532379,54.366730 469.137756,65.729256 457.530243,77.304085 
	C469.333649,89.038651 480.666290,100.305206 492.327942,111.898857 
	C491.184875,113.138680 490.101379,114.313919 488.770111,115.742233 
z"/>
<path fill="#FF4412" opacity="1.000000" stroke="none" 
	d="
M119.749672,389.249664 
	C124.249443,393.727783 128.499176,397.955994 132.655762,402.091492 
	C121.292313,413.428741 110.028580,424.666504 98.314629,436.353455 
	C110.213074,448.197357 121.612099,459.544098 132.753159,470.634094 
	C125.486610,477.877289 118.320656,485.020233 110.857933,492.459015 
	C100.025993,481.591095 88.683311,470.210724 77.393448,458.883362 
	C65.768700,470.541595 54.402172,481.940857 43.352203,493.022644 
	C35.605816,485.300629 28.429747,478.147186 21.401682,471.141235 
	C32.650761,459.943115 44.062943,448.582642 55.665718,437.032440 
	C43.614185,425.112518 32.257458,413.879852 20.410231,402.162018 
	C27.391365,395.165070 34.085423,388.315338 41.041744,381.743225 
	C41.615269,381.201355 44.409874,382.090729 45.426464,383.080963 
	C54.733139,392.146515 63.890564,401.365814 73.044601,410.586792 
	C74.208603,411.759308 75.103104,413.199371 76.050682,414.422852 
	C87.766708,402.678406 98.889732,391.528412 110.779243,379.610107 
	C114.135216,383.223633 116.817429,386.111694 119.749672,389.249664 
z"/>
<path fill="#17ACE8" opacity="1.000000" stroke="none" 
	d="
M256.115540,459.047607 
	C244.738525,470.032043 233.361481,481.016449 222.350662,491.647247 
	C215.806580,485.129089 208.568329,477.919525 200.966721,470.348053 
	C211.870316,459.474670 223.026596,448.349274 234.511826,436.895874 
	C224.130066,426.546600 214.126617,416.329773 203.812073,406.437317 
	C200.607849,403.364258 200.610062,401.531342 203.834763,398.529755 
	C209.920837,392.864685 215.591187,386.752960 221.930710,380.323425 
	C233.545731,391.971863 244.908264,403.367065 256.599579,415.320984 
	C256.657410,430.268951 256.386475,444.658295 256.115540,459.047607 
z"/>
<path fill="#168AFC" opacity="1.000000" stroke="none" 
	d="
M256.427429,459.146118 
	C256.386475,444.658295 256.657410,430.268951 256.917480,415.409912 
	C268.370758,403.833801 279.834930,392.727386 291.650299,381.280731 
	C297.788025,387.389221 304.563263,393.964172 311.025116,400.833862 
	C311.643250,401.490997 310.825775,404.489166 309.797333,405.549255 
	C300.748871,414.876038 291.498566,424.006866 282.316559,433.204254 
	C281.159607,434.363159 280.052002,435.571259 278.768372,436.917114 
	C290.070892,448.197021 301.221008,459.324799 312.088745,470.170776 
	C304.468842,477.745178 297.295959,484.875214 289.770477,492.355774 
	C279.188416,481.748108 267.963837,470.496368 256.427429,459.146118 
z"/>
<path fill="#1689FC" opacity="1.000000" stroke="none" 
	d="
M459.276306,256.346191 
	C461.232941,259.104431 463.258667,261.687439 465.556763,263.999756 
	C474.363159,272.860565 483.257019,281.634430 491.664764,289.990051 
	C484.232239,297.429718 476.982452,304.686462 469.618927,312.057068 
	C459.187531,301.597687 447.920898,290.300812 436.428345,278.777466 
	C424.985931,290.328735 413.733551,301.688141 402.926788,312.597717 
	C395.549805,305.228363 388.292847,297.978851 380.525146,290.219116 
	C391.098267,279.676910 402.499390,268.309174 413.753906,257.087585 
	C402.476990,245.839981 391.177032,234.569382 380.176880,223.597809 
	C387.897552,215.883163 395.105713,208.680664 402.217529,201.574417 
	C413.183441,212.594101 424.545807,224.012192 436.001465,235.524048 
	C447.767181,223.680695 458.921478,212.452774 469.792755,201.509766 
	C477.151245,208.872574 484.357147,216.082703 491.988464,223.718521 
	C481.387573,234.257507 470.429016,245.152084 459.276306,256.346191 
z"/>
<path fill="#17ACE8" opacity="1.000000" stroke="none" 
	d="
M70.745865,284.755035 
	C61.214218,294.331696 51.932522,303.659882 42.929031,312.708466 
	C35.580158,305.393250 28.392233,298.238251 21.165268,291.044373 
	C32.210220,280.056915 43.380955,268.944305 54.626286,257.757507 
	C42.800190,246.066727 31.595114,234.989883 20.780827,224.299332 
	C28.707899,216.353775 35.946579,209.098206 43.283161,201.744507 
	C53.805546,212.334320 64.961639,223.561905 76.230995,234.903488 
	C87.696129,223.385254 99.022308,212.006638 109.998688,200.979416 
	C117.680672,208.681717 124.916603,215.936798 132.414795,223.454819 
	C121.687347,234.075348 110.326614,245.322830 99.264153,256.275024 
	C110.765015,267.752472 122.157570,279.121857 133.528503,290.469635 
	C125.460579,298.368835 118.245392,305.433105 111.408447,312.127045 
	C100.441452,301.142578 89.083641,289.766693 77.244865,277.909088 
	C74.541504,280.763184 72.768661,282.634888 70.745865,284.755035 
z"/>
<path fill="#BF1600" opacity="1.000000" stroke="none" 
	d="
M470.321167,486.317566 
	C448.100586,502.422333 415.769043,499.661011 396.152374,481.798401 
	C380.549133,467.590332 374.034149,449.979126 376.202240,429.550415 
	C378.222565,410.514130 388.098785,395.697327 404.346436,385.242096 
	C414.195282,378.904388 425.170349,375.921295 436.563965,376.158569 
	C466.385437,376.779572 490.973022,396.729187 495.605774,426.509460 
	C499.363220,450.662964 491.661560,471.572205 470.321167,486.317566 
M422.484375,410.873077 
	C403.871429,420.500275 402.184998,445.539154 416.327423,458.026276 
	C425.930969,466.505768 439.538147,468.621582 450.963135,462.008850 
	C462.077240,455.576050 467.953491,441.215820 464.485077,428.933929 
	C460.086304,413.357513 441.041718,400.979248 422.484375,410.873077 
z"/>
<path fill="#FF4412" opacity="1.000000" stroke="none" 
	d="
M123.774689,39.279911 
	C129.866714,47.697941 134.373657,56.318989 136.121567,66.448227 
	C138.972610,82.970131 136.013626,98.213707 126.490303,111.786812 
	C116.238899,126.397614 102.086700,134.784439 84.038757,137.148697 
	C64.294029,139.735245 47.679214,133.272888 33.995209,120.071144 
	C23.466034,109.913033 17.679234,96.875038 16.845774,81.635704 
	C15.808868,62.676537 21.547136,46.513027 35.100559,33.555950 
	C53.279430,16.176954 79.475998,12.107265 102.420403,22.702667 
	C110.796623,26.570684 117.449997,32.335365 123.774689,39.279911 
M58.988983,54.518272 
	C57.456490,55.733215 55.534248,56.674713 54.457493,58.209408 
	C49.185455,65.723618 46.000137,73.920952 48.039165,83.290810 
	C51.218060,97.898666 65.500679,108.552284 79.420227,106.800621 
	C99.013618,104.334953 111.349503,85.371483 104.000648,66.768456 
	C97.024147,49.107967 75.184540,41.700638 58.988983,54.518272 
z"/>
<path fill="#FF4412" opacity="1.000000" stroke="none" 
	d="
M256.943024,137.792145 
	C243.429077,137.900009 231.178986,133.811279 220.430847,125.822983 
	C202.904770,112.797119 195.030685,94.685219 196.181458,73.322197 
	C197.632324,46.387848 217.626846,22.957180 245.378021,18.034824 
	C248.589096,17.465267 251.880188,17.346819 255.617981,17.526272 
	C256.076538,27.983713 256.051270,37.934101 255.602173,47.932693 
	C250.866852,49.306057 246.356674,50.193401 242.282867,52.042286 
	C231.979630,56.718399 224.685242,71.701942 227.849670,83.452515 
	C231.825562,98.216324 241.604736,105.218742 256.067627,107.540894 
	C256.380432,117.671150 256.649017,127.380402 256.919342,137.265442 
	C256.921082,137.441223 256.943024,137.792145 256.943024,137.792145 
z"/>
<path fill="#C01700" opacity="1.000000" stroke="none" 
	d="
M256.917603,137.089645 
	C256.649017,127.380402 256.380432,117.671150 256.474670,107.473763 
	C262.877197,106.169052 268.476532,104.587975 273.653839,100.912231 
	C289.977478,89.322914 289.927673,64.845268 273.129211,53.814034 
	C269.371307,51.346268 265.011108,49.795692 260.707397,47.677258 
	C259.672424,47.638134 258.858246,47.744617 257.710510,47.926159 
	C256.926666,47.962311 256.476318,47.923401 256.026001,47.884491 
	C256.051270,37.934101 256.076538,27.983713 256.064758,17.575253 
	C256.479126,17.076775 256.930542,17.036366 258.054962,17.253429 
	C260.841919,17.670179 262.955872,17.829458 265.069855,17.988737 
	C277.244965,18.647156 287.397156,24.060984 296.338440,31.840494 
	C306.134552,40.363762 312.564636,51.057373 315.465424,63.801174 
	C318.444824,76.890472 317.004608,89.528526 311.704559,101.784119 
	C303.466461,120.833458 288.548279,131.714920 268.839600,136.631470 
	C266.952820,137.102142 264.898651,136.901840 262.059875,137.013840 
	C259.770874,137.039658 258.344238,137.064651 256.917603,137.089645 
z"/>
<path fill="#DC2C08" opacity="1.000000" stroke="none" 
	d="
M264.833130,17.658348 
	C262.955872,17.829458 260.841919,17.670179 258.389771,17.326773 
	C260.233215,17.204416 262.414825,17.266188 264.833130,17.658348 
z"/>
<path fill="#DE2E09" opacity="1.000000" stroke="none" 
	d="
M256.919342,137.265442 
	C258.344238,137.064651 259.770874,137.039658 261.623901,137.011963 
	C260.606995,137.323837 259.163696,137.638397 257.331726,137.872559 
	C256.943024,137.792145 256.921082,137.441223 256.919342,137.265442 
z"/>
<path fill="#FF4412" opacity="1.000000" stroke="none" 
	d="
M256.023010,316.879364 
	C241.004929,317.608917 228.225021,312.324127 217.037140,302.554504 
	C202.134247,289.540771 195.180450,272.966736 196.150146,253.458878 
	C196.820801,239.967377 201.883209,227.898132 210.907211,217.464447 
	C220.491577,206.382858 232.452667,199.881363 246.652344,197.248901 
	C249.392593,196.740906 252.288864,197.074448 255.604813,197.508179 
	C256.168121,207.603577 256.239807,217.210556 256.221619,227.074020 
	C256.086487,227.504700 256.041260,227.678925 255.564896,227.914459 
	C241.324387,226.952469 227.538666,241.789169 226.935654,255.933746 
	C226.311234,270.580597 240.066879,287.127350 256.066833,286.413818 
	C256.196289,286.855438 256.255524,287.029816 256.293579,287.613708 
	C256.189301,297.641968 256.106140,307.260651 256.023010,316.879364 
z"/>
<path fill="#C01700" opacity="1.000000" stroke="none" 
	d="
M256.474304,316.943634 
	C256.106140,307.260651 256.189301,297.641968 256.601562,287.562073 
	C257.932434,286.789703 258.934174,286.478546 260.334473,286.101196 
	C262.908142,285.431122 265.168488,285.036163 267.244293,284.188995 
	C279.105377,279.348297 287.859924,265.184235 285.877380,253.589798 
	C283.520325,239.804962 272.512115,228.369232 257.759216,227.665558 
	C257.158173,227.271561 256.734833,227.044556 256.311462,226.817551 
	C256.239807,217.210556 256.168121,207.603577 256.059814,197.558609 
	C271.349335,196.371246 284.555389,201.259674 296.088867,211.427811 
	C311.176910,224.729691 317.902679,241.555908 316.832764,261.244843 
	C316.096283,274.798065 310.868591,286.867096 301.537048,297.137177 
	C289.506104,310.378235 274.942230,317.445740 256.474304,316.943634 
z"/>
<path fill="#000000" opacity="1.000000" stroke="none" 
	d="
M422.792786,410.646912 
	C441.041718,400.979248 460.086304,413.357513 464.485077,428.933929 
	C467.953491,441.215820 462.077240,455.576050 450.963135,462.008850 
	C439.538147,468.621582 425.930969,466.505768 416.327423,458.026276 
	C402.184998,445.539154 403.871429,420.500275 422.792786,410.646912 
z"/>
<path fill="#000000" opacity="1.000000" stroke="none" 
	d="
M59.250870,54.254387 
	C75.184540,41.700638 97.024147,49.107967 104.000648,66.768456 
	C111.349503,85.371483 99.013618,104.334953 79.420227,106.800621 
	C65.500679,108.552284 51.218060,97.898666 48.039165,83.290810 
	C46.000137,73.920952 49.185455,65.723618 54.457493,58.209408 
	C55.534248,56.674713 57.456490,55.733215 59.250870,54.254387 
z"/>
<path fill="#000000" opacity="1.000000" stroke="none" 
	d="
M260.928192,47.822861 
	C265.011108,49.795692 269.371307,51.346268 273.129211,53.814034 
	C289.927673,64.845268 289.977478,89.322914 273.653839,100.912231 
	C268.476532,104.587975 262.877197,106.169052 256.430481,107.052750 
	C241.604736,105.218742 231.825562,98.216324 227.849670,83.452515 
	C224.685242,71.701942 231.979630,56.718399 242.282867,52.042286 
	C246.356674,50.193401 250.866852,49.306057 255.602173,47.932693 
	C256.476318,47.923401 256.926666,47.962311 258.070129,47.974228 
	C259.484924,47.905781 260.206543,47.864319 260.928192,47.822861 
z"/>
<path fill="#DC2C08" opacity="1.000000" stroke="none" 
	d="
M260.707397,47.677254 
	C260.206543,47.864319 259.484924,47.905781 258.403656,47.899170 
	C258.858246,47.744617 259.672424,47.638134 260.707397,47.677254 
z"/>
<path fill="#000000" opacity="1.000000" stroke="none" 
	d="
M257.936890,227.832565 
	C272.512115,228.369232 283.520325,239.804962 285.877380,253.589798 
	C287.859924,265.184235 279.105377,279.348297 267.244293,284.188995 
	C265.168488,285.036163 262.908142,285.431122 259.943207,286.037354 
	C258.101135,286.075378 257.048889,286.110992 255.996643,286.146606 
	C240.066879,287.127350 226.311234,270.580597 226.935654,255.933746 
	C227.538666,241.789169 241.324387,226.952469 255.886108,227.978867 
	C257.071259,227.932144 257.504089,227.882355 257.936890,227.832565 
z"/>
<path fill="#DF2D09" opacity="1.000000" stroke="none" 
	d="
M256.066833,286.413818 
	C257.048889,286.110992 258.101135,286.075378 259.544617,286.103607 
	C258.934174,286.478546 257.932434,286.789703 256.622711,287.152527 
	C256.255524,287.029816 256.196289,286.855438 256.066833,286.413818 
z"/>
<path fill="#DF2D09" opacity="1.000000" stroke="none" 
	d="
M257.759216,227.665558 
	C257.504089,227.882355 257.071259,227.932144 256.317230,227.917542 
	C256.041260,227.678925 256.086487,227.504700 256.221619,227.074020 
	C256.734833,227.044556 257.158173,227.271561 257.759216,227.665558 
z"/>
</svg>